<?xml version="1.0" encoding="utf-8"?><svg version="1.1" id="Laag_1" xmlns="http://www.w3.org/2000/svg" xmlns:xlink="http://www.w3.org/1999/xlink" x="0px" y="0px" viewBox="0 0 420.5 399.2" style="enable-background:new 0 0 420.5 399.2;" xml:space="preserve">
<style type="text/css">
.st0{fill:#FFFFFF;} #XMLID_1_ { fill: #000; }
#XMLID_18_ { fill: none; }
#XMLID_17_,
#XMLID_16_,
#XMLID_15_ { fill: #fff; }
</style>
 <g id="KpcLqC.tif">
    <g id="XMLID_1_">
        <g id="XMLID_14_">
            <path id="XMLID_18_" class="st0" d="M0.3,399.2c0-133,0-265.9,0-398.9c140.1,0,280.1,0,420.2,0c0,133,0,265.9,0,398.9C280.4,399.2,140.3,399.2,0.3,399.2z M317.6,131.5c0.1-0.3,0.1-0.4,0.1-0.5c-0.3-3-0.6-6-0.9-9c-0.6-5.9-1.6-11.8-2.9-17.7c-3.3-15.6-8.4-30.4-16.1-44.4c-6.4-11.7-14.4-22.4-24.1-31.5C261.6,17,247.7,8.7,231.8,4.1c-7.5-2.2-15.1-3.3-22.9-3.5c-2.6-0.1-5.3,0.1-7.9,0.2c-5,0.2-9.9,0.9-14.7,1.9c-13.5,2.9-26,8.2-37.5,15.7c-18.3,12.1-32.3,28-42.7,47.3c-6.3,11.7-10.7,24.2-14.2,37c-3.2,11.9-5.4,23.9-6.2,36.2c-0.3,5.1-0.5,10.2-0.7,15.2c-0.1,2.2,0.1,4.4,0.2,6.5c0.2,3.4,0.2,6.8,0.6,10.2c0.4,4.9,0.9,9.9,1.6,14.8c0.9,6.7,2.3,13.3,3.9,19.8c3.9,15.9,9.5,31.3,16.5,46.1c3.1,6.5,6.4,12.9,10,19.1c0.6,1,0.6,1.8,0,2.8c-3.3,6.2-4.2,12.8-2.9,19.8c3,15.4,18.3,27,35.8,23.1c16-3.6,26-19.6,22.2-35.6c-2.7-11.2-9.8-18.5-20.8-21.9c-3.9-1.2-7.9-1.5-11.9-0.9c-1,0.1-1.4-0.2-1.8-1c-1.9-3.4-3.8-6.8-5.6-10.2c-6.9-13.3-12.3-27.3-16-41.8c-2.5-9.7-4.3-19.4-5.1-29.4c-0.4-4.5-0.8-9-0.9-13.5c-0.2-7.3-0.2-14.7,0.4-22c0.4-3.9,0.6-7.8,1.1-11.7c0.7-5.8,1.8-11.6,3.3-17.4c4.5-18.2,12.2-34.9,23.3-50.1c5.2-7.2,11.3-13.4,18.8-18.4c9.2-6.1,19.2-10.4,29.9-13.2c6.4-1.7,13-2.9,19.7-3.3c4.5-0.3,8.9,0,13.3,0.8c10.6,1.8,20,6.1,28.5,12.6c8.2,6.3,14.9,14.1,20.5,22.7c6.7,10.2,11.7,21.2,15.6,32.8c2.3,6.9,4.1,13.8,5.2,21c0.3,2.3,0.6,4.6,0.9,6.9c0.1,0.7,0.4,1,1.1,1.2c8.2,2.1,16.3,4.6,24.3,7.4C316.8,131.3,317.2,131.4,317.6,131.5z M238.5,382.6c0.3,0.2,0.6,0.4,0.8,0.5c0.9,0.4,1.8,0.8,2.7,1.2c10.2,4.5,20.7,8.1,31.5,10.7c6.3,1.5,12.6,2.6,19.1,3.1c3.1,0.3,6.1,0.6,9.2,0.7c5.6,0.1,11.2,0.1,16.8-0.4c4.2-0.4,8.4-0.9,12.6-1.7c10-1.8,19.6-4.8,28.8-9c13.7-6.2,26-14.6,36.4-25.6c5.9-6.2,10.9-12.9,14.8-20.6c6-11.8,8.5-24.5,9-37.6c0.2-5.6,0-11.1-0.7-16.6c-0.6-4.8-1.4-9.5-2.5-14.2c-3.1-13.1-8.2-25.4-15-37c-4.8-8.2-10.4-15.7-16.6-22.9c-8.2-9.5-17.1-18.2-26.8-26c-12.9-10.4-26.8-19-41.8-26c-11.6-5.4-23.6-9.8-36-13.1c-11.9-3.2-24-5.5-36.2-6.7c-4.9-0.5-9.8-0.9-14.7-1.2c-4.4-0.2-8.8-0.2-13.2-0.3c-2.1,0-4.2,0-6.3,0.1c-2.3,0.1-2.3,0.2-3.6-1.8c-7.2-11.7-21.1-16.9-34.2-12.8c-14.4,4.6-23.4,19.4-20,34.8c3.4,15.5,18.5,25.9,34.6,22.7c9.6-1.9,16.6-7.4,21.1-16.2c0.5-1.1,1.1-1.6,2.3-1.6c3.5-0.1,6.9-0.3,10.4-0.3c5,0.1,10,0.4,15,0.7c3,0.2,6,0.4,8.9,0.9c4.6,0.6,9.1,1.4,13.6,2.2c11.6,2.2,22.9,5.5,33.9,9.8c13.7,5.3,26.6,12.1,38.9,20.1c13.9,9.1,26.4,19.9,36.9,32.9c9.9,12.3,17.6,25.9,22.9,40.9c2.6,7.5,4.2,15.3,4.7,23.3c0.2,3,0,6.1-0.2,9.1c-0.2,5.1-1.2,10-2.7,14.8c-2.6,8.6-6.9,16.3-12.2,23.4c-7,9.6-15.7,17.2-26.2,22.7c-11.4,5.9-23.5,8.6-36.2,9.1c-5.5,0.2-10.9-0.1-16.4-0.7c-5.4-0.6-10.7-1.5-16-2.8c-7.8-1.8-15.4-4.2-22.7-7.5c-0.7-0.3-1.1-0.2-1.6,0.3c-0.7,0.7-1.5,1.4-2.3,2c-6.5,5.2-13,10.3-19.5,15.5C239.2,382,238.9,382.2,238.5,382.6z M62.5,187.7c-0.5,0.4-0.9,0.6-1.2,0.8c-8.4,6.2-16.2,13-23.4,20.5c-10.9,11.4-19.8,24.1-26.4,38.4C5.3,261,1.7,275.3,0.9,290.2c-0.5,8.4-0.1,16.7,1.3,25c1.6,9.9,4.5,19.4,8.7,28.5c5.4,11.6,13.1,21.4,23,29.5c11.7,9.5,25,15.9,39.5,20.1c5.7,1.6,11.5,2.9,17.4,3.6c4,0.5,8,1,12,1.2c5.6,0.3,11.3,0.3,16.9-0.2c4.3-0.4,8.6-0.7,12.8-1.4c5.8-1,11.5-2.2,17.2-3.5c20.1-4.8,39.2-12.1,57.2-22.3c24.6-13.9,45.4-32.2,62.5-54.7c8.3-11,15.5-22.6,21.6-35c0.5-1,1.1-1.5,2.3-1.7c1.3-0.2,2.7-0.5,4-0.9c12.5-3.9,20.9-15.6,20.8-28.2c0-5.7-1.3-11-4.4-15.7c-6.5-10-15.7-14.7-27.7-14c-6.8,0.4-12.8,3.1-17.7,7.7c-7.6,7.2-10.6,16-9.2,26.4c0.8,5.9,3.4,11.1,7.4,15.5c0.9,1,1,1,0.3,2.2c-2,3.6-3.9,7.3-6.1,10.9c-11,18.3-25.1,33.8-41.8,46.9c-9.4,7.4-19.3,13.9-29.7,19.8c-7.3,4.1-14.7,8-22.4,11.3c-10.7,4.5-21.8,7.8-33.2,9.8c-6.2,1.1-12.4,1.8-18.7,1.9c-4.3,0.1-8.5,0-12.8-0.2c-3.2-0.1-6.5-0.4-9.7-0.8c-6.8-0.9-13.5-2.4-20-4.8c-9.5-3.5-18.1-8.7-25.4-15.8c-5.3-5.1-9.5-11.1-13.1-17.5c-7-12.6-10.7-26.1-10.1-40.6c0.2-5,0.9-9.9,2-14.8c2.1-9.2,5.8-17.9,10.6-26c8.4-14.3,19.2-26.5,32.1-36.8c1.1-0.9,1.1-0.9,0.7-2.2c-2.1-6.6-3.8-13.3-5.4-20C63.4,191.4,63,189.6,62.5,187.7z"/>
            <path id="XMLID_17_" d="M317.6,131.5c-0.4-0.1-0.7-0.2-1.1-0.3c-8-2.8-16.1-5.3-24.3-7.4c-0.7-0.2-1-0.5-1.1-1.2c-0.3-2.3-0.5-4.6-0.9-6.9c-1.1-7.2-2.9-14.1-5.2-21c-3.8-11.6-8.9-22.6-15.6-32.8c-5.7-8.6-12.3-16.4-20.5-22.7c-8.5-6.5-17.9-10.9-28.5-12.6c-4.4-0.7-8.8-1.1-13.3-0.8c-6.7,0.4-13.2,1.5-19.7,3.3c-10.6,2.9-20.7,7.1-29.9,13.2c-7.4,4.9-13.5,11.2-18.8,18.4c-11.1,15.2-18.7,31.9-23.3,50.1c-1.4,5.7-2.5,11.5-3.3,17.4c-0.5,3.9-0.8,7.8-1.1,11.7c-0.7,7.3-0.6,14.7-0.4,22c0.1,4.5,0.5,9,0.9,13.5c0.9,9.9,2.7,19.7,5.1,29.4c3.7,14.6,9.1,28.5,16,41.8c1.8,3.5,3.7,6.8,5.6,10.2c0.4,0.8,0.9,1.1,1.8,1c4-0.6,8-0.3,11.9,0.9c11,3.4,18.2,10.7,20.8,21.9c3.8,16-6.2,32-22.2,35.6c-17.6,4-32.9-7.7-35.8-23.1c-1.3-6.9-0.4-13.5,2.9-19.8c0.6-1,0.6-1.8,0-2.8c-3.7-6.2-6.9-12.6-10-19.1c-7-14.8-12.6-30.2-16.5-46.1c-1.6-6.6-3-13.2-3.9-19.8c-0.7-4.9-1.2-9.8-1.6-14.8c-0.3-3.4-0.4-6.8-0.6-10.2c-0.1-2.2-0.2-4.4-0.2-6.5c0.2-5.1,0.3-10.2,0.7-15.2c0.8-12.3,3-24.3,6.2-36.2c3.5-12.8,7.8-25.3,14.2-37c10.4-19.2,24.4-35.2,42.7-47.3c11.5-7.6,24-12.9,37.5-15.7c4.8-1,9.7-1.7,14.7-1.9c2.6-0.1,5.3-0.3,7.9-0.2c7.8,0.2,15.4,1.3,22.9,3.5c16,4.6,29.8,12.9,41.9,24.2c9.8,9.2,17.7,19.8,24.1,31.5c7.7,14,12.8,28.9,16.1,44.4c1.2,5.8,2.2,11.7,2.9,17.7c0.3,3,0.6,6,0.9,9C317.7,131.1,317.6,131.2,317.6,131.5z"/>
            <path id="XMLID_16_" d="M238.5,382.6c0.4-0.3,0.7-0.6,1.1-0.9c6.5-5.2,13-10.3,19.5-15.5c0.8-0.6,1.6-1.3,2.3-2c0.5-0.5,0.9-0.6,1.6-0.3c7.3,3.2,14.9,5.7,22.7,7.5c5.3,1.2,10.6,2.2,16,2.8c5.4,0.6,10.9,0.9,16.4,0.7c12.7-0.5,24.9-3.2,36.2-9.1c10.6-5.5,19.2-13.1,26.2-22.7c5.3-7.2,9.6-14.9,12.2-23.4c1.5-4.8,2.5-9.8,2.7-14.8c0.1-3,0.3-6.1,0.2-9.1c-0.4-8-2-15.7-4.7-23.3c-5.2-15-12.9-28.5-22.9-40.9c-10.5-13-22.9-23.8-36.9-32.9c-12.3-8-25.2-14.8-38.9-20.1c-11-4.3-22.3-7.6-33.9-9.8c-4.5-0.9-9.1-1.6-13.6-2.2c-3-0.4-5.9-0.7-8.9-0.9c-5-0.3-10-0.6-15-0.7c-3.5-0.1-6.9,0.2-10.4,0.3c-1.2,0-1.8,0.5-2.3,1.6c-4.4,8.8-11.4,14.3-21.1,16.2c-16.1,3.1-31.2-7.2-34.6-22.7c-3.4-15.4,5.6-30.2,20-34.8c13-4.1,27,1.1,34.2,12.8c1.2,2,1.2,1.9,3.6,1.8c2.1-0.1,4.2-0.1,6.3-0.1c4.4,0.1,8.8,0.1,13.2,0.3c4.9,0.3,9.8,0.7,14.7,1.2c12.3,1.2,24.3,3.5,36.2,6.7c12.4,3.3,24.4,7.7,36,13.1c15,7,28.9,15.7,41.8,26c9.8,7.8,18.7,16.6,26.8,26c6.2,7.2,11.8,14.7,16.6,22.9c6.8,11.6,11.9,23.9,15,37c1.1,4.7,1.9,9.4,2.5,14.2c0.6,5.5,0.9,11.1,0.7,16.6c-0.5,13.1-3,25.8-9,37.6c-3.8,7.6-8.9,14.4-14.8,20.6c-10.4,11-22.6,19.4-36.4,25.6c-9.2,4.2-18.8,7.1-28.8,9c-4.2,0.8-8.3,1.3-12.6,1.7c-5.6,0.5-11.2,0.6-16.8,0.4c-3.1-0.1-6.1-0.4-9.2-0.7c-6.4-0.6-12.8-1.7-19.1-3.1c-10.8-2.5-21.3-6.1-31.5-10.7c-0.9-0.4-1.8-0.8-2.7-1.2C239.1,382.9,238.9,382.8,238.5,382.6z"/>
            <path id="XMLID_15_" d="M62.5,187.7c0.4,2,0.8,3.7,1.2,5.4c1.6,6.7,3.3,13.4,5.4,20c0.4,1.4,0.4,1.3-0.7,2.2c-12.9,10.3-23.8,22.5-32.1,36.8c-4.8,8.2-8.4,16.8-10.6,26c-1.1,4.9-1.8,9.8-2,14.8c-0.6,14.5,3.1,28,10.1,40.6c3.5,6.4,7.8,12.4,13.1,17.5c7.3,7.1,15.9,12.3,25.4,15.8c6.5,2.4,13.2,3.9,20,4.8c3.2,0.4,6.5,0.7,9.7,0.8c4.3,0.2,8.5,0.3,12.8,0.2c6.3-0.1,12.5-0.9,18.7-1.9c11.5-2,22.5-5.3,33.2-9.8c7.7-3.2,15.1-7.1,22.4-11.3c10.4-5.9,20.3-12.4,29.7-19.8c16.7-13.2,30.8-28.7,41.8-46.9c2.1-3.5,4.1-7.2,6.1-10.9c0.6-1.2,0.6-1.2-0.3-2.2c-4-4.4-6.6-9.6-7.4-15.5c-1.4-10.3,1.6-19.2,9.2-26.4c5-4.7,10.9-7.3,17.7-7.7c11.9-0.8,21.2,4,27.7,14c3.1,4.7,4.4,10,4.4,15.7c0.1,12.6-8.3,24.4-20.8,28.2c-1.3,0.4-2.6,0.7-4,0.9c-1.2,0.1-1.8,0.6-2.3,1.7c-6.1,12.3-13.3,24-21.6,35c-17.1,22.5-37.9,40.8-62.5,54.7c-18,10.2-37.1,17.5-57.2,22.3c-5.7,1.3-11.4,2.5-17.2,3.5c-4.2,0.7-8.6,1-12.8,1.4c-5.6,0.5-11.3,0.4-16.9,0.2c-4-0.2-8-0.7-12-1.2c-5.9-0.7-11.7-2-17.4-3.6c-14.5-4.1-27.8-10.5-39.5-20.1c-9.9-8.1-17.6-17.9-23-29.5c-4.2-9.1-7-18.6-8.7-28.5c-1.4-8.3-1.7-16.7-1.3-25c0.8-14.9,4.4-29.2,10.6-42.8c6.5-14.3,15.5-27,26.4-38.4c7.2-7.5,15-14.3,23.4-20.5C61.7,188.3,62,188,62.5,187.7z"/>
        </g>
    </g>
</g>
</svg>