<?xml version="1.0" encoding="utf-8"?>
<!-- Generator: Adobe Illustrator 19.0.0, SVG Export Plug-In . SVG Version: 6.00 Build 0)  -->
<svg version="1.1" id="Laag_1" xmlns="http://www.w3.org/2000/svg" xmlns:xlink="http://www.w3.org/1999/xlink" x="0px" y="0px"
	 viewBox="0 0 418 142.8" style="enable-background:new 0 0 418 142.8;" xml:space="preserve">
<style type="text/css">
	.st0{fill:none;stroke:#FFF;stroke-miterlimit:10;}
	#XMLID_1_,
	#XMLID_2_ { fill: #FFF; }
</style>
<g id="XMLID_1_">
	<path id="XMLID_62_" d="M0,34.1l0.4-3h18l-0.3,3l-5.8,1.6l7.6,22.7l7.7-22.6L21,34.1l0.6-3H37l-0.5,3l-4.3,1.6l-11,30.9l-5.1,0.7
		L4.9,35.8L0,34.1z"/>
	<path id="XMLID_64_" d="M38.1,66.2l0.5-3.2l6.1-1.5V36.8l-6.1-2.2l0.5-3.1l11.3-0.9l1,1v29.9l6.4,1.4l-0.4,3.2H38.1z M47.7,23.2
		c-0.9,0-1.7-0.2-2.4-0.7c-0.7-0.5-1.3-1.1-1.8-1.8c-0.4-0.8-0.6-1.6-0.6-2.5c0-1.3,0.5-2.3,1.4-3.2c1-0.9,2.1-1.3,3.4-1.3
		c1.3,0,2.5,0.4,3.5,1.3c1,0.9,1.4,2,1.4,3.3c0,0.9-0.2,1.7-0.7,2.5c-0.4,0.8-1,1.3-1.8,1.8C49.3,23,48.5,23.2,47.7,23.2z"/>
	<path id="XMLID_67_" d="M78.4,66.2H59.8l0.4-2.9l6.1-1.6V37.2l-6.2-2.1l0.4-3.1l12-1.6l0.7,0.8l-0.7,5.1h0.4
		c1.5-1.8,3.3-3.3,5.4-4.5c2.1-1.2,4.3-1.8,6.7-1.8c3.1,0,5.5,1,7.2,3c1.7,2,2.5,4.8,2.5,8.4v20.2l5.8,1.4l-0.4,3.2H82l0.4-2.9
		l5.6-1.6V43c0-2.5-0.6-4.4-1.9-5.6c-1.3-1.2-3-1.8-5.1-1.8c-1.5,0-3,0.3-4.3,0.9C75.2,37.1,74,38,73,39.1v22.6l6,1.4L78.4,66.2z"/>
	<path id="XMLID_69_" d="M118.8,67.4c-3.1,0-5.9-0.8-8.3-2.4c-2.4-1.6-4.3-3.8-5.6-6.5c-1.3-2.7-2-5.7-2-8.9c0-3.8,0.8-7.2,2.4-10.2
		c1.6-3,3.7-5.3,6.3-6.9c2.6-1.6,5.4-2.4,8.3-2.4c2.1,0,3.9,0.3,5.4,0.8c1.4,0.6,2.5,1.3,3.2,2.3c0.7,0.9,1.1,2,1.1,3.1
		c0,1.2-0.4,2.2-1.3,2.9c-0.9,0.8-2.1,1.2-3.8,1.3c-0.8-1.9-1.7-3.5-2.7-4.7s-2.2-1.9-3.8-1.9c-1.6,0-3,0.5-4.2,1.5
		c-1.2,1-2.1,2.4-2.8,4.2c-0.7,1.8-1,3.9-1,6.3c0,2.4,0.4,5,1.3,7.6c0.9,2.6,2.2,4.8,4,6.6s4,2.7,6.6,2.7c1.8,0,3.3-0.2,4.5-0.6
		c1.2-0.4,2.4-1,3.6-1.8l1,2.3c-1.1,1.3-2.9,2.5-5.2,3.5C123.8,66.9,121.3,67.4,118.8,67.4z"/>
	<path id="XMLID_71_" d="M149.5,67.4c-2.6,0-5.1-0.7-7.4-2.1c-2.3-1.4-4.2-3.5-5.6-6.3c-1.4-2.8-2.1-6.1-2.1-10
		c0-3.8,0.8-7.2,2.4-10.1c1.6-2.9,3.7-5.1,6.3-6.6c2.5-1.5,5.2-2.3,7.8-2.3c2,0,3.8,0.5,5.4,1.5c1.6,1,2.9,2.4,3.9,4.3
		c1,1.9,1.4,4.2,1.4,7c0,0.6-0.1,1.5-0.2,2.6c-0.1,1.1-0.3,2-0.4,2.7l-19.5,0.2c0.1,2.3,0.6,4.4,1.4,6.6s2.1,3.9,3.8,5.2
		c1.6,1.4,3.7,2,6,2c1.3,0,2.3,0,3.1-0.1c0.8-0.1,1.6-0.3,2.6-0.6c1-0.3,2.1-0.8,3.5-1.5l0.8,2.1c-1.6,1.7-3.6,3-5.9,4
		C154.6,66.9,152.1,67.4,149.5,67.4z M148.9,34c-1.1,0-2.2,0.4-3.3,1.2c-1.1,0.8-2,2.1-2.7,3.7c-0.7,1.7-1.2,3.7-1.3,6.2l12.6-0.9
		c0.1-0.3,0.1-0.7,0.2-1.3c0-0.6,0.1-1.1,0.1-1.5C154.5,36.5,152.6,34,148.9,34z"/>
	<path id="XMLID_74_" d="M184.7,66.2H166l0.4-2.9l6.1-1.6V37.2l-6.2-2.1l0.4-3.1l12-1.6l0.7,0.8l-0.7,5.1h0.4
		c1.5-1.8,3.3-3.3,5.4-4.5c2.1-1.2,4.3-1.8,6.7-1.8c3.1,0,5.5,1,7.2,3c1.7,2,2.5,4.8,2.5,8.4v20.2l5.8,1.4l-0.4,3.2h-18.1l0.4-2.9
		l5.6-1.6V43c0-2.5-0.6-4.4-1.9-5.6c-1.3-1.2-3-1.8-5.1-1.8c-1.5,0-3,0.3-4.3,0.9c-1.4,0.6-2.6,1.5-3.6,2.6v22.6l6,1.4L184.7,66.2z"
		/>
	<path id="XMLID_76_" d="M213.4,35.5h-5.1v-2.2c1.6-1.3,3.3-3,5.1-4.9c1.8-2,3.4-3.9,4.8-5.9h2.1v9.6h11.4l-0.4,3.5h-11.1l-0.1,17.8
		c0,2,0.2,3.6,0.6,4.7c0.4,1.2,1,2,1.9,2.5c0.9,0.5,2,0.7,3.4,0.7c0.9,0,1.8-0.2,2.6-0.5c0.9-0.3,1.6-0.7,2.2-1.1
		c0.6-0.4,0.9-0.6,0.9-0.6l0.8,2.2c-1.3,1.9-2.8,3.3-4.7,4.3c-1.9,1-3.9,1.6-6.2,1.6c-2.7,0-4.8-0.9-6.3-2.6
		c-1.5-1.7-2.3-4.6-2.2-8.8L213.4,35.5z"/>
	<path id="XMLID_78_" d="M79.9,126.8c-2.4,0-4.6-0.7-6.6-2c-2-1.3-3.6-3.2-4.7-5.8s-1.8-5.6-1.8-9.2c0-3.7,0.9-7.1,2.6-10.2
		c1.7-3.1,4-5.5,6.7-7.3c2.7-1.8,5.5-2.7,8.3-2.7c1.3,0,2.6,0.2,3.9,0.5c1.3,0.3,2.3,0.8,3,1.2h0.3L91,86.4v-6.3l-6.1-2.2l0.6-3
		l11.2-1l0.8,1v42.5c0,1.3,0.2,2.3,0.5,3c0.3,0.7,0.8,1.1,1.3,1.3c0.5,0.2,1.4,0.5,2.6,0.7l1.8,0.4l-0.4,3.3c-1.2,0.3-2.2,0.5-3,0.6
		c-0.8,0.1-1.8,0.1-3,0.1c-1.9,0-3.4-0.5-4.4-1.6c-1-1.1-1.5-2.5-1.5-4.3v-0.3H91c-1.3,1.8-2.9,3.3-4.7,4.4
		C84.6,126.2,82.4,126.8,79.9,126.8z M82.4,93.7c-3,0-5.1,1.2-6.5,3.7s-2.1,5.8-2.1,10c0,3.1,0.4,5.7,1.1,7.9
		c0.8,2.2,1.8,3.8,3.2,4.9c1.3,1.1,2.9,1.6,4.6,1.6c1.6,0,3.1-0.4,4.7-1.2c1.6-0.8,2.8-1.6,3.6-2.5V99.2c-1-1.7-2.4-3-4-4
		C85.3,94.2,83.8,93.7,82.4,93.7z"/>
	<path id="XMLID_81_" d="M121.5,127.2c-2.6,0-5.1-0.7-7.4-2.1c-2.3-1.4-4.2-3.5-5.6-6.3c-1.4-2.8-2.1-6.1-2.1-10
		c0-3.8,0.8-7.2,2.4-10.1c1.6-2.9,3.7-5.1,6.3-6.6c2.5-1.5,5.2-2.3,7.8-2.3c2,0,3.8,0.5,5.4,1.5c1.6,1,2.9,2.4,3.9,4.3
		c1,1.9,1.4,4.2,1.4,7c0,0.6-0.1,1.5-0.2,2.6c-0.1,1.1-0.3,2-0.4,2.7l-19.5,0.2c0.1,2.3,0.6,4.4,1.4,6.6c0.9,2.1,2.1,3.9,3.8,5.2
		s3.7,2,6,2c1.3,0,2.3,0,3.1-0.1c0.8-0.1,1.6-0.3,2.6-0.6c1-0.3,2.1-0.8,3.5-1.5l0.8,2.1c-1.6,1.7-3.6,3-5.9,4
		C126.6,126.7,124.2,127.2,121.5,127.2z M121,93.7c-1.1,0-2.2,0.4-3.3,1.2c-1.1,0.8-2,2.1-2.7,3.7c-0.7,1.7-1.2,3.7-1.3,6.2
		l12.6-0.9c0.1-0.3,0.1-0.7,0.2-1.3c0-0.6,0.1-1.1,0.1-1.5C126.5,96.2,124.7,93.7,121,93.7z"/>
	<path id="XMLID_84_" d="M160.4,126h-22.2l0.4-3l6.2-1.6V96.7l-6.6-2l0.6-3.1l11.5-1.5l0.9,1l-0.8,9.3h0.8c0.7-2.3,1.6-4.3,2.7-6
		c1.1-1.6,2.3-2.9,3.5-3.7c1.2-0.8,2.5-1.2,3.7-1.2c1.3,0,2.4,0.4,3.2,1.3c0.8,0.9,1.2,2,1.2,3.2c0,1.7-0.8,3.2-2.3,4.5
		c-0.8-0.5-1.6-0.9-2.5-1.1c-0.9-0.3-1.7-0.4-2.5-0.4c-0.8,0-1.7,0.3-2.7,1c-1,0.7-1.8,1.6-2.6,3c-0.8,1.3-1.3,2.9-1.6,4.8v15.4
		l9.4,1.4L160.4,126z"/>
	<path id="XMLID_86_" d="M166.5,126l0.4-3.2l6.2-1.5V80.2l-6.4-2.1l0.5-3.1l11.6-0.9l1,1v46.2l6.4,1.4l-0.5,3.2H166.5z M185,114.4
		l-4.2-5.8v-0.8l10.4-13.1l-5.4-1.6l0.4-3.1h17.1l-0.6,3l-6,1.7l-9.5,11.7l3.2,4.1c0.5,0.6,1.5,1.9,2.8,3.6c1.6,2.1,2.9,3.7,3.8,4.7
		s1.9,1.9,2.9,2.6c1,0.7,2.2,1.1,3.6,1.2l1.6,0.2l-0.4,3.1c-1.9,0.5-3.5,0.8-4.8,0.8c-1.7,0-3.3-0.4-4.7-1.2c-1.4-0.8-2.9-2-4.3-3.7
		C189.4,120.2,187.5,117.7,185,114.4z"/>
	<path id="XMLID_89_" d="M218.9,127.3c-2.3,0-4.3-0.3-6.1-0.9c-1.8-0.6-3.1-1.3-4.1-2.3c-1-1-1.4-2-1.4-3.1c0-1.5,0.4-2.8,1.3-3.9
		c0.9-1.1,2.1-1.7,3.6-1.8c0.9,2.6,2,4.6,3.4,5.9c1.4,1.3,2.9,2,4.6,2c1.6,0,2.8-0.3,3.8-1c1-0.7,1.5-1.7,1.5-3.1
		c0-0.9-0.3-1.7-0.9-2.4c-0.6-0.7-1.3-1.4-2.2-2c-0.9-0.6-2.2-1.4-3.8-2.3c-2.2-1.3-4-2.4-5.4-3.4c-1.4-1-2.6-2.2-3.5-3.7
		c-1-1.5-1.5-3.2-1.5-5.1c0-1.7,0.5-3.3,1.4-4.9c0.9-1.6,2.3-3,4.1-4.1c1.8-1.1,4-1.6,6.5-1.6c1.9,0,3.6,0.3,5.1,0.9
		c1.5,0.6,2.7,1.5,3.5,2.6c0.8,1.1,1.2,2.3,1.2,3.6c0,1.5-0.5,2.8-1.5,3.7c-1,1-2.4,1.5-4.1,1.6c-0.5-3.1-1.3-5.3-2.3-6.9
		c-1.1-1.5-2.4-2.3-3.9-2.3c-1.4,0-2.5,0.5-3.3,1.4c-0.8,0.9-1.2,2.1-1.2,3.4c0,1.1,0.3,2,1,2.9c0.7,0.9,1.5,1.6,2.5,2.3
		c1,0.7,2.4,1.5,4.1,2.5c2.1,1.2,3.9,2.2,5.2,3.2c1.3,0.9,2.5,2.1,3.4,3.5c0.9,1.4,1.4,3,1.4,4.8c0,1.9-0.6,3.6-1.8,5.2
		c-1.2,1.6-2.7,2.8-4.6,3.7C222.9,126.9,221,127.3,218.9,127.3z"/>
</g>
<g id="XMLID_2_">
	<path id="XMLID_18_" d="M272.4,66.1h-12l0.3-1.5l3.2-0.9V49.6h-3.1l0.3-1.5l2.9-0.5c0.2-2,0.8-3.8,1.6-5.2c0.9-1.4,1.8-2.5,3-3.3
		s2.2-1.1,3.3-1.1c1.2,0,2.1,0.2,2.9,0.6c0.7,0.4,1.1,1,1.1,1.8c0,0.5-0.2,1-0.6,1.4c-0.4,0.5-0.8,0.8-1.2,0.9
		c-0.5-0.7-1.1-1.3-1.8-1.8c-0.7-0.5-1.3-0.8-1.9-0.8c-0.9,0-1.5,0.4-2,1.2c-0.5,0.8-0.7,2.1-0.8,4.1l0,2.3h5.4l-0.3,1.9h-5.2v14
		l5.2,0.8L272.4,66.1z"/>
	<path id="XMLID_20_" d="M286.8,66.1h-11.7l0.2-1.6l3.2-0.8v-13l-3.4-1l0.3-1.6l6.1-0.8l0.5,0.5l-0.4,4.9h0.4
		c0.4-1.2,0.8-2.3,1.4-3.1c0.6-0.9,1.2-1.5,1.8-1.9c0.6-0.4,1.3-0.6,1.9-0.6c0.7,0,1.3,0.2,1.7,0.7s0.7,1,0.7,1.7
		c0,0.9-0.4,1.7-1.2,2.3c-0.4-0.3-0.8-0.5-1.3-0.6s-0.9-0.2-1.3-0.2c-0.4,0-0.9,0.2-1.4,0.5c-0.5,0.3-1,0.9-1.4,1.6
		c-0.4,0.7-0.7,1.5-0.8,2.5v8.1l4.9,0.7L286.8,66.1z"/>
	<path id="XMLID_22_" d="M299.6,66.7c-1.8,0-3.4-0.4-4.7-1.2s-2.3-2-3-3.4c-0.7-1.4-1-3.1-1-4.9c0-2.1,0.4-3.8,1.3-5.4
		c0.9-1.5,2-2.7,3.4-3.5s2.9-1.2,4.5-1.2c1.7,0,3.2,0.4,4.4,1.2c1.3,0.8,2.2,2,2.9,3.4c0.7,1.5,1,3.2,1,5.1c0,1.9-0.4,3.6-1.2,5.1
		c-0.8,1.5-1.8,2.7-3.2,3.5C302.7,66.3,301.2,66.7,299.6,66.7z M299.2,49.3c-1,0-1.9,0.3-2.5,0.9c-0.7,0.6-1.2,1.3-1.5,2.3
		c-0.3,1-0.5,2-0.5,3.2c0,1.6,0.2,3,0.6,4.4c0.4,1.4,1,2.5,1.8,3.3s1.9,1.3,3.2,1.3c0.9,0,1.7-0.3,2.4-0.9c0.7-0.6,1.2-1.3,1.5-2.3
		c0.3-0.9,0.5-1.9,0.5-3c0-1.5-0.2-3-0.6-4.4c-0.4-1.4-1-2.6-1.8-3.5C301.5,49.7,300.4,49.3,299.2,49.3z"/>
	<path id="XMLID_25_" d="M320.1,66.1h-9.8l0.2-1.5l3.2-0.9V50.9l-3.3-1.1l0.2-1.6l6.3-0.8l0.4,0.4l-0.4,2.7h0.2
		c0.8-1,1.8-1.8,2.9-2.4s2.3-1,3.5-1c1.6,0,2.9,0.5,3.8,1.6c0.9,1,1.3,2.5,1.3,4.4v10.6l3,0.7l-0.2,1.7h-9.5l0.2-1.5l2.9-0.9v-9.8
		c0-1.3-0.3-2.3-1-2.9s-1.6-1-2.7-1c-0.8,0-1.5,0.2-2.3,0.5c-0.7,0.3-1.4,0.8-1.9,1.3v11.8l3.1,0.7L320.1,66.1z"/>
	<path id="XMLID_27_" d="M335.2,50h-2.7v-1.1c0.9-0.7,1.8-1.6,2.7-2.6c0.9-1,1.8-2.1,2.5-3.1h1.1v5h6l-0.2,1.9h-5.8l-0.1,9.3
		c0,1.1,0.1,1.9,0.3,2.5s0.5,1,1,1.3c0.5,0.3,1,0.4,1.8,0.4c0.5,0,0.9-0.1,1.4-0.3c0.5-0.2,0.8-0.4,1.2-0.6c0.3-0.2,0.5-0.3,0.5-0.3
		l0.4,1.1c-0.7,1-1.5,1.7-2.5,2.3s-2.1,0.8-3.3,0.8c-1.4,0-2.5-0.4-3.3-1.3s-1.2-2.4-1.2-4.6L335.2,50z"/>
	<path id="XMLID_29_" d="M347.3,57.7l0.2-2.1l8.6-0.4l-0.2,2.2L347.3,57.7z"/>
	<path id="XMLID_31_" d="M366.9,66.8c-1.4,0-2.7-0.4-3.9-1.1c-1.2-0.7-2.2-1.8-2.9-3.3c-0.7-1.5-1.1-3.2-1.1-5.3
		c0-2,0.4-3.8,1.3-5.3c0.9-1.5,1.9-2.7,3.3-3.5c1.3-0.8,2.7-1.2,4.1-1.2c1,0,2,0.3,2.9,0.8c0.9,0.5,1.5,1.3,2,2.3
		c0.5,1,0.8,2.2,0.8,3.7c0,0.3,0,0.8-0.1,1.3c-0.1,0.6-0.1,1-0.2,1.4l-10.2,0.1c0.1,1.2,0.3,2.3,0.8,3.4c0.5,1.1,1.1,2,2,2.7
		c0.9,0.7,1.9,1.1,3.2,1.1c0.7,0,1.2,0,1.6-0.1c0.4,0,0.9-0.1,1.4-0.3c0.5-0.2,1.1-0.4,1.8-0.8l0.4,1.1c-0.8,0.9-1.9,1.6-3.1,2.1
		S368.3,66.8,366.9,66.8z M366.6,49.2c-0.6,0-1.2,0.2-1.7,0.6c-0.6,0.4-1,1.1-1.4,2s-0.6,2-0.7,3.3l6.6-0.5c0-0.2,0.1-0.4,0.1-0.7
		c0-0.3,0-0.6,0-0.8C369.6,50.5,368.6,49.2,366.6,49.2z"/>
	<path id="XMLID_34_" d="M385.4,66.1h-9.8l0.2-1.5l3.2-0.9V50.9l-3.3-1.1l0.2-1.6l6.3-0.8l0.4,0.4l-0.4,2.7h0.2
		c0.8-1,1.8-1.8,2.9-2.4s2.3-1,3.5-1c1.6,0,2.9,0.5,3.8,1.6c0.9,1,1.3,2.5,1.3,4.4v10.6l3,0.7l-0.2,1.7h-9.5l0.2-1.5l2.9-0.9v-9.8
		c0-1.3-0.3-2.3-1-2.9s-1.6-1-2.7-1c-0.8,0-1.5,0.2-2.3,0.5c-0.7,0.3-1.4,0.8-1.9,1.3v11.8l3.1,0.7L385.4,66.1z"/>
	<path id="XMLID_36_" d="M405.2,66.6c-1.3,0-2.4-0.3-3.5-1c-1-0.7-1.9-1.7-2.5-3c-0.6-1.3-0.9-2.9-0.9-4.8c0-2,0.5-3.7,1.4-5.4
		c0.9-1.6,2.1-2.9,3.5-3.8c1.4-0.9,2.9-1.4,4.3-1.4c0.7,0,1.4,0.1,2.1,0.3c0.7,0.2,1.2,0.4,1.6,0.7h0.1l-0.3-2.7V42l-3.2-1.2
		l0.3-1.6l5.9-0.5l0.4,0.5v22.3c0,0.7,0.1,1.2,0.3,1.6s0.4,0.6,0.7,0.7c0.3,0.1,0.7,0.2,1.3,0.4l1,0.2l-0.2,1.8
		c-0.6,0.2-1.2,0.3-1.6,0.3s-0.9,0.1-1.6,0.1c-1,0-1.8-0.3-2.3-0.9c-0.5-0.6-0.8-1.3-0.8-2.2v-0.1h-0.2c-0.7,1-1.5,1.7-2.4,2.3
		C407.7,66.3,406.6,66.6,405.2,66.6z M406.6,49.2c-1.6,0-2.7,0.7-3.4,2c-0.7,1.3-1.1,3-1.1,5.2c0,1.6,0.2,3,0.6,4.1
		c0.4,1.1,1,2,1.7,2.6c0.7,0.6,1.5,0.9,2.4,0.9c0.8,0,1.6-0.2,2.5-0.6c0.8-0.4,1.5-0.9,1.9-1.3v-9.9c-0.5-0.9-1.2-1.6-2.1-2.1
		C408.1,49.5,407.3,49.2,406.6,49.2z"/>
	<path id="XMLID_39_" d="M267.6,111.9c-1.3,0-2.4-0.3-3.5-1c-1-0.7-1.9-1.7-2.5-3c-0.6-1.3-0.9-2.9-0.9-4.8c0-2,0.5-3.7,1.4-5.4
		c0.9-1.6,2.1-2.9,3.5-3.8c1.4-0.9,2.9-1.4,4.3-1.4c0.7,0,1.4,0.1,2.1,0.3c0.7,0.2,1.2,0.4,1.6,0.7h0.1l-0.3-2.7v-3.3l-3.2-1.2
		l0.3-1.6l5.9-0.5l0.4,0.5v22.3c0,0.7,0.1,1.2,0.3,1.6c0.2,0.3,0.4,0.6,0.7,0.7c0.3,0.1,0.7,0.2,1.3,0.4l1,0.2l-0.2,1.8
		c-0.6,0.2-1.2,0.3-1.6,0.3c-0.4,0-0.9,0.1-1.6,0.1c-1,0-1.8-0.3-2.3-0.9c-0.5-0.6-0.8-1.3-0.8-2.2v-0.1h-0.2
		c-0.7,1-1.5,1.7-2.4,2.3C270.1,111.6,269,111.9,267.6,111.9z M269,94.5c-1.6,0-2.7,0.7-3.4,2c-0.7,1.3-1.1,3-1.1,5.2
		c0,1.6,0.2,3,0.6,4.1c0.4,1.1,1,2,1.7,2.6c0.7,0.6,1.5,0.9,2.4,0.9c0.8,0,1.6-0.2,2.5-0.6s1.5-0.9,1.9-1.3v-9.9
		c-0.5-0.9-1.2-1.6-2.1-2.1C270.5,94.8,269.7,94.5,269,94.5z"/>
	<path id="XMLID_42_" d="M289.5,112.1c-1.4,0-2.7-0.4-3.9-1.1c-1.2-0.7-2.2-1.8-2.9-3.3c-0.7-1.5-1.1-3.2-1.1-5.3
		c0-2,0.4-3.8,1.3-5.3c0.9-1.5,1.9-2.7,3.3-3.5c1.3-0.8,2.7-1.2,4.1-1.2c1,0,2,0.3,2.9,0.8c0.9,0.5,1.5,1.3,2,2.3s0.8,2.2,0.8,3.7
		c0,0.3,0,0.8-0.1,1.3c-0.1,0.6-0.1,1-0.2,1.4l-10.2,0.1c0.1,1.2,0.3,2.3,0.8,3.4c0.5,1.1,1.1,2,2,2.7c0.9,0.7,1.9,1.1,3.2,1.1
		c0.7,0,1.2,0,1.6-0.1c0.4,0,0.9-0.1,1.4-0.3c0.5-0.2,1.1-0.4,1.8-0.8l0.4,1.1c-0.8,0.9-1.9,1.6-3.1,2.1S290.9,112.1,289.5,112.1z
		 M289.2,94.5c-0.6,0-1.2,0.2-1.7,0.6s-1,1.1-1.4,2c-0.4,0.9-0.6,2-0.7,3.3l6.6-0.5c0-0.2,0.1-0.4,0.1-0.7c0-0.3,0-0.6,0-0.8
		C292.1,95.8,291.2,94.5,289.2,94.5z"/>
	<path id="XMLID_45_" d="M297.3,94.6l0.2-1.6h9.4l-0.2,1.6l-3.1,0.9l4,11.9l4.1-11.9l-3.4-0.9l0.3-1.6h8.1l-0.3,1.6l-2.3,0.9
		l-5.8,16.2l-2.7,0.4l-5.9-16.6L297.3,94.6z"/>
	<path id="XMLID_47_" d="M325.5,112.1c-1.4,0-2.7-0.4-3.9-1.1c-1.2-0.7-2.2-1.8-2.9-3.3c-0.7-1.5-1.1-3.2-1.1-5.3
		c0-2,0.4-3.8,1.3-5.3c0.9-1.5,1.9-2.7,3.3-3.5c1.3-0.8,2.7-1.2,4.1-1.2c1,0,2,0.3,2.9,0.8c0.9,0.5,1.5,1.3,2,2.3s0.8,2.2,0.8,3.7
		c0,0.3,0,0.8-0.1,1.3c-0.1,0.6-0.1,1-0.2,1.4l-10.2,0.1c0.1,1.2,0.3,2.3,0.8,3.4c0.5,1.1,1.1,2,2,2.7c0.9,0.7,1.9,1.1,3.2,1.1
		c0.7,0,1.2,0,1.6-0.1c0.4,0,0.9-0.1,1.4-0.3c0.5-0.2,1.1-0.4,1.8-0.8l0.4,1.1c-0.8,0.9-1.9,1.6-3.1,2.1S326.9,112.1,325.5,112.1z
		 M325.2,94.5c-0.6,0-1.2,0.2-1.7,0.6s-1,1.1-1.4,2c-0.4,0.9-0.6,2-0.7,3.3l6.6-0.5c0-0.2,0.1-0.4,0.1-0.7c0-0.3,0-0.6,0-0.8
		C328.2,95.8,327.2,94.5,325.2,94.5z"/>
	<path id="XMLID_50_" d="M333.6,111.4l0.2-1.7l3.2-0.8V87.2l-3.3-1.1l0.3-1.6l6.1-0.5l0.5,0.5V109l3.4,0.8l-0.3,1.7H333.6z"/>
	<path id="XMLID_52_" d="M354,112c-1.8,0-3.4-0.4-4.7-1.2c-1.3-0.8-2.3-2-3-3.4c-0.7-1.4-1-3.1-1-4.9c0-2.1,0.4-3.8,1.3-5.4
		c0.9-1.5,2-2.7,3.4-3.5s2.9-1.2,4.5-1.2c1.7,0,3.2,0.4,4.4,1.2s2.2,2,2.9,3.4c0.7,1.5,1,3.2,1,5.1c0,1.9-0.4,3.6-1.2,5.1
		s-1.8,2.7-3.2,3.5C357.1,111.6,355.6,112,354,112z M353.6,94.6c-1,0-1.9,0.3-2.5,0.9s-1.2,1.3-1.5,2.3c-0.3,1-0.5,2-0.5,3.2
		c0,1.6,0.2,3,0.6,4.4c0.4,1.4,1,2.5,1.8,3.3c0.8,0.9,1.9,1.3,3.2,1.3c0.9,0,1.7-0.3,2.4-0.9c0.7-0.6,1.2-1.3,1.5-2.3
		c0.3-0.9,0.5-1.9,0.5-3c0-1.5-0.2-3-0.6-4.4c-0.4-1.4-1-2.6-1.8-3.5C355.9,95.1,354.8,94.6,353.6,94.6z"/>
	<path id="XMLID_55_" d="M374,119.3h-9.8l0.1-1.6l3.2-0.8V96.2l-3.3-1l0.3-1.6l6.1-0.8l0.4,0.4l-0.3,2.7h0.1
		c0.7-0.9,1.5-1.8,2.5-2.4c1-0.7,2.1-1,3.3-1c1.3,0,2.4,0.3,3.3,1c1,0.6,1.7,1.7,2.3,3c0.5,1.4,0.8,3.1,0.8,5.1c0,2-0.4,3.7-1.2,5.3
		c-0.8,1.6-1.9,2.8-3.4,3.7c-1.4,0.9-3,1.3-4.8,1.3c-0.6,0-1.3-0.1-2-0.2l-0.1-2.6c0.5,0.2,0.9,0.3,1.4,0.4c0.4,0.1,1,0.1,1.9,0.1
		c1.4,0,2.5-0.6,3.3-1.8c0.8-1.2,1.1-2.8,1.1-4.9c0-2.5-0.3-4.4-1-5.7s-1.7-1.9-3-1.9c-0.8,0-1.6,0.2-2.4,0.6
		c-0.8,0.4-1.4,0.9-2,1.5v19.5l3.3,0.7L374,119.3z"/>
	<path id="XMLID_57_" d="M393.4,112.1c-1.4,0-2.7-0.4-3.9-1.1c-1.2-0.7-2.2-1.8-2.9-3.3c-0.7-1.5-1.1-3.2-1.1-5.3
		c0-2,0.4-3.8,1.3-5.3c0.9-1.5,1.9-2.7,3.3-3.5c1.3-0.8,2.7-1.2,4.1-1.2c1,0,2,0.3,2.9,0.8c0.9,0.5,1.5,1.3,2,2.3s0.8,2.2,0.8,3.7
		c0,0.3,0,0.8-0.1,1.3c-0.1,0.6-0.1,1-0.2,1.4l-10.2,0.1c0.1,1.2,0.3,2.3,0.8,3.4c0.5,1.1,1.1,2,2,2.7c0.9,0.7,1.9,1.1,3.2,1.1
		c0.7,0,1.2,0,1.6-0.1c0.4,0,0.9-0.1,1.4-0.3c0.5-0.2,1.1-0.4,1.8-0.8l0.4,1.1c-0.8,0.9-1.9,1.6-3.1,2.1S394.8,112.1,393.4,112.1z
		 M393.1,94.5c-0.6,0-1.2,0.2-1.7,0.6s-1,1.1-1.4,2c-0.4,0.9-0.6,2-0.7,3.3l6.6-0.5c0-0.2,0.1-0.4,0.1-0.7c0-0.3,0-0.6,0-0.8
		C396,95.8,395.1,94.5,393.1,94.5z"/>
	<path id="XMLID_60_" d="M413.8,111.4h-11.7l0.2-1.6l3.2-0.8v-13l-3.4-1l0.3-1.6l6.1-0.8l0.5,0.5l-0.4,4.9h0.4
		c0.4-1.2,0.8-2.3,1.4-3.1c0.6-0.9,1.2-1.5,1.8-1.9c0.6-0.4,1.3-0.6,1.9-0.6c0.7,0,1.3,0.2,1.7,0.7s0.7,1,0.7,1.7
		c0,0.9-0.4,1.7-1.2,2.3c-0.4-0.3-0.8-0.5-1.3-0.6s-0.9-0.2-1.3-0.2c-0.4,0-0.9,0.2-1.4,0.5c-0.5,0.3-1,0.9-1.4,1.6
		c-0.4,0.7-0.7,1.5-0.8,2.5v8.1l4.9,0.7L413.8,111.4z"/>
</g>
<line id="XMLID_3_" class="st0" x1="246.4" y1="31.2" x2="246.4" y2="126.5"/>
</svg>
